<?xml version="1.0"?>
<svg xmlns="http://www.w3.org/2000/svg" xmlns:xlink="http://www.w3.org/1999/xlink" version="1.1" id="Capa_1" x="0px" y="0px" width="512px" height="512px" viewBox="0 0 47 47" style="enable-background:new 0 0 47 47;" xml:space="preserve" class=""><g><g>
	<g>
		<path d="M39.951,0H7.049C3.162,0,0,3.162,0,7.049v32.902C0,43.838,3.162,47,7.049,47h32.902C43.838,47,47,43.838,47,39.951V7.049    C47,3.162,43.838,0,39.951,0z M42.299,39.951c0,1.294-1.054,2.348-2.348,2.348H7.049c-1.294,0-2.348-1.054-2.348-2.348V7.049    c0-1.294,1.054-2.348,2.348-2.348h32.902c1.294,0,2.348,1.054,2.348,2.348V39.951z" data-original="#000000" class="active-path" data-old_color="#000000" fill="#FFFFFF"/>
		<path d="M31.525,14.307c0-4.428-3.6-8.032-8.028-8.032c-4.427,0-8.026,3.604-8.026,8.032v5.783H11.75v20.639h23.5V20.09h-3.725    V14.307z M27.503,20.09h-8.015v-5.783c0-2.216,1.799-4.015,4.009-4.015c2.215,0,4.006,1.799,4.006,4.015V20.09z" data-original="#000000" class="active-path" data-old_color="#000000" fill="#FFFFFF"/>
	</g>
</g></g> </svg>
