<?xml version="1.0"?>
<svg xmlns="http://www.w3.org/2000/svg" xmlns:xlink="http://www.w3.org/1999/xlink" version="1.1" id="Capa_1" x="0px" y="0px" width="512px" height="512px" viewBox="0 0 47 47" style="enable-background:new 0 0 47 47;" xml:space="preserve" class=""><g><g>
	<g>
		<path d="M23.499,19.755c-1.512,0-2.742,1.233-2.742,2.748v2.676h5.485v-2.676C26.242,20.988,25.012,19.755,23.499,19.755z" data-original="#000000" class="active-path" fill="#000000"/>
		<path d="M41.777,13.448H27.156v-2.089c0-2.873-2.352-5.222-5.223-5.222H5.222C2.351,6.137,0,8.486,0,11.359v24.284    c0,2.873,2.351,5.221,5.222,5.221h16.711h19.844c2.871,0,5.223-2.348,5.223-5.221V18.67C47,15.798,44.648,13.448,41.777,13.448z     M31.334,34.2c0,1.132-0.93,2.061-2.062,2.061H17.729c-1.133,0-2.063-0.928-2.063-2.061v-6.959c0-1.134,0.929-2.062,2.063-2.062    h0.278v-2.676c0-3.03,2.464-5.495,5.492-5.495c3.028,0,5.493,2.465,5.493,5.495v2.676h0.279c1.133,0,2.063,0.928,2.063,2.062    L31.334,34.2L31.334,34.2z" data-original="#000000" class="active-path" fill="#000000"/>
	</g>
</g></g> </svg>
